<?xml version="1.0" standalone="no"?><svg xmlns="http://www.w3.org/2000/svg" viewBox="0 0 1440 320"><path fill="#273036" fill-opacity="100" d="M0,288L34.3,256C68.6,224,137,160,206,112C274.3,64,343,32,411,58.7C480,85,549,171,617,192C685.7,213,754,171,823,133.3C891.4,96,960,64,1029,48C1097.1,32,1166,32,1234,74.7C1302.9,117,1371,203,1406,245.3L1440,288L1440,0L1405.7,0C1371.4,0,1303,0,1234,0C1165.7,0,1097,0,1029,0C960,0,891,0,823,0C754.3,0,686,0,617,0C548.6,0,480,0,411,0C342.9,0,274,0,206,0C137.1,0,69,0,34,0L0,0Z"></path></svg>